<svg width="103" height="103" viewBox="0 0 103 103" fill="none" xmlns="http://www.w3.org/2000/svg">
<circle cx="51.5" cy="51.5" r="50" fill="#F6F5F1" stroke="#0E0E0C" stroke-width="3"/>
<path d="M38.4506 36.048C38.833 35.3688 39.8111 35.3688 40.1935 36.048L56.5154 65.0434C56.8906 65.71 56.4089 66.5339 55.644 66.5339H23.0001C22.2351 66.5339 21.7534 65.71 22.1287 65.0434L38.4506 36.048Z" fill="#0E0E0C"/>
<path d="M54.8052 36.5945C54.8052 36.0274 55.2649 35.5677 55.8319 35.5677H66.017C74.5681 35.5677 81.5001 42.4997 81.5001 51.0508V51.0508C81.5001 59.6019 74.5681 66.5339 66.017 66.5339H55.3286C55.0395 66.5339 54.8052 66.2995 54.8052 66.0104V36.5945Z" fill="#0E0E0C"/>
</svg>
